STARTFONT 2.1
COMMENT GFtoPK 2.3 output from METAFONT output 1994.05.19:0940
COMMENT identifier CMSY
COMMENT codingscheme TeX math symbols
COMMENT fontfacebyte
COMMENT Nr: 15335424
COMMENT Checksum 21222c9a
COMMENT 
COMMENT This file is made by pktobdf using the above specified pk file.
COMMENT 
FONT -metafont-cmsy10-medium-r-normal--12-120-75-75-p-64-metafont-fontspecific
SIZE 12 75 75
FONTBOUNDINGBOX 14 22 -1 -12
STARTPROPERTIES 22
FONT_ASCENT 9
FONT_DESCENT 3
DEFAULT_CHAR 65
FOUNDRY "metafont"
FAMILY_NAME "cmsy10"
WEIGHT_NAME "medium"
SLANT "r"
SETWIDTH_NAME "normal"
ADD_STYLE_NAME ""
PIXEL_SIZE 12
POINT_SIZE 120
RESOLUTION_X 75
RESOLUTION_Y 75
SPACING "P"
AVERAGE_WIDTH 64
CHARSET_REGISTRY "Metafont"
CHARSET_ENCODING "FONTSPECIFIC"
AVG_CAPITAL_WIDTH 16
AVG_LOWERCASE_WIDTH 9
COPYRIGHT "Metafont (public domain)"
FULLNAME "cmsy10"
DEVICE_FONT_NAME "cmsy10"
ENDPROPERTIES
CHARS 128
STARTCHAR Gamma
ENCODING 0
SWIDTH 795 0
DWIDTH 10 0
BBX 7 1 1 3
BITMAP
fe
ENDCHAR
STARTCHAR Delta
ENCODING 1
SWIDTH 238 0
DWIDTH 3 0
BBX 1 1 1 3
BITMAP
80
ENDCHAR
STARTCHAR Theta
ENCODING 2
SWIDTH 795 0
DWIDTH 10 0
BBX 5 5 2 1
BITMAP
88
50
20
50
88
ENDCHAR
STARTCHAR Lamdba
ENCODING 3
SWIDTH 477 0
DWIDTH 6 0
BBX 5 5 0 1
BITMAP
20
f8
70
f8
20
ENDCHAR
STARTCHAR Xi
ENCODING 4
SWIDTH 795 0
DWIDTH 10 0
BBX 7 7 1 0
BITMAP
10
00
00
fe
00
00
10
ENDCHAR
STARTCHAR Pi
ENCODING 5
SWIDTH 477 0
DWIDTH 6 0
BBX 5 5 0 1
BITMAP
20
50
88
50
20
ENDCHAR
STARTCHAR Sigma
ENCODING 6
SWIDTH 795 0
DWIDTH 10 0
BBX 7 7 1 1
BITMAP
10
10
10
fe
10
10
fe
ENDCHAR
STARTCHAR Upsilon
ENCODING 7
SWIDTH 795 0
DWIDTH 10 0
BBX 7 7 1 -1
BITMAP
fe
10
10
fe
10
10
10
ENDCHAR
STARTCHAR Phi
ENCODING 8
SWIDTH 795 0
DWIDTH 10 0
BBX 7 7 1 0
BITMAP
38
54
92
fe
92
54
38
ENDCHAR
STARTCHAR Psi
ENCODING 9
SWIDTH 795 0
DWIDTH 10 0
BBX 7 7 1 0
BITMAP
38
44
82
fe
82
44
38
ENDCHAR
STARTCHAR Omega
ENCODING 10
SWIDTH 795 0
DWIDTH 10 0
BBX 7 7 1 0
BITMAP
38
44
aa
92
aa
44
38
ENDCHAR
STARTCHAR arrowup
ENCODING 11
SWIDTH 795 0
DWIDTH 10 0
BBX 7 7 1 0
BITMAP
38
44
8a
92
a2
44
38
ENDCHAR
STARTCHAR arrowdown
ENCODING 12
SWIDTH 795 0
DWIDTH 10 0
BBX 7 7 1 0
BITMAP
38
44
82
92
82
44
38
ENDCHAR
STARTCHAR quotesingle
ENCODING 13
SWIDTH 954 0
DWIDTH 12 0
BBX 9 11 1 -2
BITMAP
1c00
2200
4100
8080
8080
8080
8080
8080
4100
2200
1c00
ENDCHAR
STARTCHAR exclamdown
ENCODING 14
SWIDTH 477 0
DWIDTH 6 0
BBX 3 5 1 1
BITMAP
40
a0
a0
a0
40
ENDCHAR
STARTCHAR questiondown
ENCODING 15
SWIDTH 477 0
DWIDTH 6 0
BBX 3 5 1 1
BITMAP
40
e0
e0
e0
40
ENDCHAR
STARTCHAR dotlessi
ENCODING 16
SWIDTH 795 0
DWIDTH 10 0
BBX 7 7 1 0
BITMAP
82
44
38
00
38
44
82
ENDCHAR
STARTCHAR dotlessj
ENCODING 17
SWIDTH 795 0
DWIDTH 10 0
BBX 7 7 1 0
BITMAP
fe
00
00
fe
00
00
fe
ENDCHAR
STARTCHAR grave
ENCODING 18
SWIDTH 795 0
DWIDTH 10 0
BBX 7 11 1 -3
BITMAP
3e
40
80
80
80
80
40
3e
00
00
fe
ENDCHAR
STARTCHAR acute
ENCODING 19
SWIDTH 795 0
DWIDTH 10 0
BBX 7 11 1 -3
BITMAP
f8
04
02
02
02
02
04
f8
00
00
fe
ENDCHAR
STARTCHAR caron
ENCODING 20
SWIDTH 795 0
DWIDTH 10 0
BBX 7 11 1 -3
BITMAP
02
0c
30
c0
c0
30
0c
02
00
00
fe
ENDCHAR
STARTCHAR breve
ENCODING 21
SWIDTH 795 0
DWIDTH 10 0
BBX 7 11 1 -3
BITMAP
80
60
18
06
06
18
60
80
00
00
fe
ENDCHAR
STARTCHAR macron
ENCODING 22
SWIDTH 795 0
DWIDTH 10 0
BBX 7 11 1 -3
BITMAP
02
02
04
18
f0
0c
02
02
00
00
fe
ENDCHAR
STARTCHAR ring
ENCODING 23
SWIDTH 795 0
DWIDTH 10 0
BBX 7 11 1 -3
BITMAP
80
80
40
30
1e
60
80
80
00
00
fe
ENDCHAR
STARTCHAR cedilla
ENCODING 24
SWIDTH 795 0
DWIDTH 10 0
BBX 7 3 1 2
BITMAP
62
92
8c
ENDCHAR
STARTCHAR germandbls
ENCODING 25
SWIDTH 795 0
DWIDTH 10 0
BBX 7 6 1 0
BITMAP
62
92
8c
62
92
8c
ENDCHAR
STARTCHAR ae
ENCODING 26
SWIDTH 795 0
DWIDTH 10 0
BBX 7 9 1 -1
BITMAP
3e
40
80
80
80
80
80
40
3e
ENDCHAR
STARTCHAR oe
ENCODING 27
SWIDTH 795 0
DWIDTH 10 0
BBX 7 9 1 -1
BITMAP
f8
04
02
02
02
02
02
04
f8
ENDCHAR
STARTCHAR oslash
ENCODING 28
SWIDTH 954 0
DWIDTH 12 0
BBX 9 9 1 -1
BITMAP
0280
0f00
1400
7800
a000
7800
1400
0f00
0280
ENDCHAR
STARTCHAR AE
ENCODING 29
SWIDTH 954 0
DWIDTH 12 0
BBX 9 9 1 -1
BITMAP
a000
7800
1400
0f00
0280
0f00
1400
7800
a000
ENDCHAR
STARTCHAR OE
ENCODING 30
SWIDTH 795 0
DWIDTH 10 0
BBX 7 8 1 -1
BITMAP
02
02
04
18
f0
0c
02
02
ENDCHAR
STARTCHAR Oslash
ENCODING 31
SWIDTH 795 0
DWIDTH 10 0
BBX 7 8 1 -1
BITMAP
80
80
40
30
1e
60
80
80
ENDCHAR
STARTCHAR tilde
ENCODING 32
SWIDTH 954 0
DWIDTH 12 0
BBX 9 5 1 1
BITMAP
2000
4000
ff80
4000
2000
ENDCHAR
STARTCHAR exclam
ENCODING 33
SWIDTH 954 0
DWIDTH 12 0
BBX 9 5 1 1
BITMAP
0200
0100
ff80
0100
0200
ENDCHAR
STARTCHAR quotedblright
ENCODING 34
SWIDTH 477 0
DWIDTH 6 0
BBX 5 11 0 -2
BITMAP
20
70
a8
20
20
20
20
20
20
20
20
ENDCHAR
STARTCHAR numbersign
ENCODING 35
SWIDTH 477 0
DWIDTH 6 0
BBX 5 11 0 -2
BITMAP
20
20
20
20
20
20
20
20
a8
70
20
ENDCHAR
STARTCHAR dollar
ENCODING 36
SWIDTH 954 0
DWIDTH 12 0
BBX 9 5 1 1
BITMAP
2200
4100
ff80
4100
2200
ENDCHAR
STARTCHAR percent
ENCODING 37
SWIDTH 954 0
DWIDTH 12 0
BBX 9 11 1 -2
BITMAP
0380
0180
0380
0200
0400
0800
1000
3000
6000
4000
8000
ENDCHAR
STARTCHAR ampersand
ENCODING 38
SWIDTH 954 0
DWIDTH 12 0
BBX 9 11 1 -2
BITMAP
8000
4000
6000
3000
1000
0800
0400
0200
0380
0180
0380
ENDCHAR
STARTCHAR quoteright
ENCODING 39
SWIDTH 795 0
DWIDTH 10 0
BBX 7 6 1 0
BITMAP
62
92
8c
00
00
fe
ENDCHAR
STARTCHAR parenleft
ENCODING 40
SWIDTH 954 0
DWIDTH 12 0
BBX 8 7 2 0
BITMAP
20
3f
c0
80
40
3f
20
ENDCHAR
STARTCHAR parenright
ENCODING 41
SWIDTH 954 0
DWIDTH 12 0
BBX 8 7 1 0
BITMAP
04
fc
03
01
02
fc
04
ENDCHAR
STARTCHAR asterisk
ENCODING 42
SWIDTH 636 0
DWIDTH 8 0
BBX 8 10 0 -2
BITMAP
18
24
66
a5
24
24
24
24
24
24
ENDCHAR
STARTCHAR plus
ENCODING 43
SWIDTH 636 0
DWIDTH 8 0
BBX 8 10 0 -1
BITMAP
24
24
24
24
24
24
a5
66
24
18
ENDCHAR
STARTCHAR comma
ENCODING 44
SWIDTH 954 0
DWIDTH 12 0
BBX 7 7 2 0
BITMAP
28
7c
82
82
44
7c
28
ENDCHAR
STARTCHAR hyphen
ENCODING 45
SWIDTH 954 0
DWIDTH 12 0
BBX 9 11 1 -2
BITMAP
e000
c000
e000
2000
1000
0800
0400
0600
0300
0100
0080
ENDCHAR
STARTCHAR period
ENCODING 46
SWIDTH 954 0
DWIDTH 12 0
BBX 9 11 1 -2
BITMAP
0080
0100
0300
0600
0400
0800
1000
2000
e000
c000
e000
ENDCHAR
STARTCHAR slash
ENCODING 47
SWIDTH 795 0
DWIDTH 10 0
BBX 8 5 1 0
BITMAP
63
94
88
94
63
ENDCHAR
STARTCHAR 0
ENCODING 48
SWIDTH 238 0
DWIDTH 3 0
BBX 2 7 0 0
BITMAP
40
40
40
80
80
80
80
ENDCHAR
STARTCHAR 1
ENCODING 49
SWIDTH 954 0
DWIDTH 12 0
BBX 9 5 1 0
BITMAP
6300
9480
8880
9480
6300
ENDCHAR
STARTCHAR 2
ENCODING 50
SWIDTH 636 0
DWIDTH 8 0
BBX 5 9 1 -1
BITMAP
38
40
80
80
f8
80
80
40
38
ENDCHAR
STARTCHAR 3
ENCODING 51
SWIDTH 636 0
DWIDTH 8 0
BBX 5 9 1 -1
BITMAP
e0
10
08
08
f8
08
08
10
e0
ENDCHAR
STARTCHAR 4
ENCODING 52
SWIDTH 954 0
DWIDTH 12 0
BBX 9 9 1 0
BITMAP
0800
1400
1400
2200
2200
4100
4100
8080
ff80
ENDCHAR
STARTCHAR 5
ENCODING 53
SWIDTH 954 0
DWIDTH 12 0
BBX 9 9 1 -2
BITMAP
ff80
8080
4100
4100
2200
2200
1400
1400
0800
ENDCHAR
STARTCHAR 6
ENCODING 54
SWIDTH 0 0
DWIDTH 0 0
BBX 5 11 2 -2
BITMAP
08
08
10
10
20
20
20
40
40
80
80
ENDCHAR
STARTCHAR 7
ENCODING 55
SWIDTH 0 0
DWIDTH 0 0
BBX 1 5 1 1
BITMAP
80
80
80
80
80
ENDCHAR
STARTCHAR 8
ENCODING 56
SWIDTH 636 0
DWIDTH 8 0
BBX 7 9 0 0
BITMAP
82
82
44
7c
44
28
28
10
10
ENDCHAR
STARTCHAR 9
ENCODING 57
SWIDTH 556 0
DWIDTH 7 0
BBX 4 9 1 0
BITMAP
f0
10
10
10
f0
10
10
10
f0
ENDCHAR
STARTCHAR colon
ENCODING 58
SWIDTH 636 0
DWIDTH 8 0
BBX 5 3 1 2
BITMAP
f8
08
08
ENDCHAR
STARTCHAR semicolon
ENCODING 59
SWIDTH 477 0
DWIDTH 6 0
BBX 3 10 1 -1
BITMAP
60
a0
a0
e0
e0
e0
e0
a0
c0
80
ENDCHAR
STARTCHAR less
ENCODING 60
SWIDTH 716 0
DWIDTH 9 0
BBX 8 9 0 0
BITMAP
64
5a
4a
49
4e
4c
0c
cc
77
ENDCHAR
STARTCHAR equal
ENCODING 61
SWIDTH 716 0
DWIDTH 9 0
BBX 7 9 1 0
BITMAP
70
8a
86
80
66
06
c4
24
18
ENDCHAR
STARTCHAR greater
ENCODING 62
SWIDTH 795 0
DWIDTH 10 0
BBX 7 7 1 0
BITMAP
fe
10
10
10
10
10
10
ENDCHAR
STARTCHAR question
ENCODING 63
SWIDTH 795 0
DWIDTH 10 0
BBX 7 7 1 0
BITMAP
10
10
10
10
10
10
fe
ENDCHAR
STARTCHAR at
ENCODING 64
SWIDTH 636 0
DWIDTH 8 0
BBX 5 9 1 0
BITMAP
90
90
58
d8
b0
90
90
48
88
ENDCHAR
STARTCHAR A
ENCODING 65
SWIDTH 795 0
DWIDTH 10 0
BBX 7 9 1 0
BITMAP
02
04
0c
0c
14
14
3c
44
82
ENDCHAR
STARTCHAR B
ENCODING 66
SWIDTH 636 0
DWIDTH 8 0
BBX 7 9 0 0
BITMAP
2c
32
22
2c
4c
42
42
44
b8
ENDCHAR
STARTCHAR C
ENCODING 67
SWIDTH 556 0
DWIDTH 7 0
BBX 6 9 0 0
BITMAP
1c
24
48
80
80
80
80
88
70
ENDCHAR
STARTCHAR D
ENCODING 68
SWIDTH 795 0
DWIDTH 10 0
BBX 8 9 1 0
BITMAP
3c
d2
91
11
21
22
22
24
78
ENDCHAR
STARTCHAR E
ENCODING 69
SWIDTH 556 0
DWIDTH 7 0
BBX 5 9 1 0
BITMAP
18
28
40
40
30
40
80
90
60
ENDCHAR
STARTCHAR F
ENCODING 70
SWIDTH 716 0
DWIDTH 9 0
BBX 9 9 1 0
BITMAP
3f80
4800
4800
1000
1e00
1000
2000
2000
c000
ENDCHAR
STARTCHAR G
ENCODING 71
SWIDTH 556 0
DWIDTH 7 0
BBX 7 10 0 -1
BITMAP
1e
22
44
80
84
84
8c
78
08
f0
ENDCHAR
STARTCHAR H
ENCODING 72
SWIDTH 875 0
DWIDTH 11 0
BBX 9 9 1 0
BITMAP
7080
9100
9100
1100
3e00
2200
2200
4200
4300
ENDCHAR
STARTCHAR I
ENCODING 73
SWIDTH 556 0
DWIDTH 7 0
BBX 7 9 0 0
BITMAP
3e
48
08
10
10
10
20
28
f8
ENDCHAR
STARTCHAR J
ENCODING 74
SWIDTH 636 0
DWIDTH 8 0
BBX 9 10 0 -1
BITMAP
0780
1900
1200
0200
0400
0400
0400
0400
8800
7000
ENDCHAR
STARTCHAR K
ENCODING 75
SWIDTH 716 0
DWIDTH 9 0
BBX 7 9 0 0
BITMAP
26
28
28
30
50
50
50
4a
8c
ENDCHAR
STARTCHAR L
ENCODING 76
SWIDTH 716 0
DWIDTH 9 0
BBX 6 9 0 0
BITMAP
0c
14
20
20
20
20
40
64
9c
ENDCHAR
STARTCHAR M
ENCODING 77
SWIDTH 1193 0
DWIDTH 15 0
BBX 13 9 0 0
BITMAP
0808
0810
0830
1830
1460
14a0
2520
2220
c030
ENDCHAR
STARTCHAR N
ENCODING 78
SWIDTH 795 0
DWIDTH 10 0
BBX 11 10 -1 0
BITMAP
0060
0880
1880
1880
1880
1900
1500
2500
2600
c200
ENDCHAR
STARTCHAR O
ENCODING 79
SWIDTH 795 0
DWIDTH 10 0
BBX 8 9 1 0
BITMAP
16
29
51
81
81
82
82
44
78
ENDCHAR
STARTCHAR P
ENCODING 80
SWIDTH 716 0
DWIDTH 9 0
BBX 8 10 1 -1
BITMAP
3e
d1
91
11
26
38
20
20
40
40
ENDCHAR
STARTCHAR Q
ENCODING 81
SWIDTH 795 0
DWIDTH 10 0
BBX 7 10 1 -1
BITMAP
1c
22
42
82
82
84
94
78
e0
1e
ENDCHAR
STARTCHAR R
ENCODING 82
SWIDTH 875 0
DWIDTH 11 0
BBX 8 9 1 0
BITMAP
3e
d1
91
12
2c
28
24
25
47
ENDCHAR
STARTCHAR S
ENCODING 83
SWIDTH 636 0
DWIDTH 8 0
BBX 7 9 1 0
BITMAP
1c
22
20
30
08
84
84
88
70
ENDCHAR
STARTCHAR T
ENCODING 84
SWIDTH 556 0
DWIDTH 7 0
BBX 8 9 1 0
BITMAP
7f
88
90
10
10
10
20
20
f0
ENDCHAR
STARTCHAR U
ENCODING 85
SWIDTH 636 0
DWIDTH 8 0
BBX 8 9 0 0
BITMAP
61
21
22
42
46
84
8c
94
66
ENDCHAR
STARTCHAR V
ENCODING 86
SWIDTH 636 0
DWIDTH 8 0
BBX 7 9 1 0
BITMAP
c4
22
22
24
24
28
30
60
40
ENDCHAR
STARTCHAR W
ENCODING 87
SWIDTH 954 0
DWIDTH 12 0
BBX 11 9 1 0
BITMAP
8440
4620
4a20
4a40
5240
5280
6280
c300
c200
ENDCHAR
STARTCHAR X
ENCODING 88
SWIDTH 716 0
DWIDTH 9 0
BBX 9 9 0 0
BITMAP
1980
0880
0900
0e00
0800
3800
4800
8400
c600
ENDCHAR
STARTCHAR Y
ENCODING 89
SWIDTH 636 0
DWIDTH 8 0
BBX 8 10 0 -1
BITMAP
62
11
11
09
0a
0c
0c
18
90
60
ENDCHAR
STARTCHAR Z
ENCODING 90
SWIDTH 716 0
DWIDTH 9 0
BBX 8 9 0 0
BITMAP
1f
22
22
04
1e
10
22
42
fc
ENDCHAR
STARTCHAR bracketleft
ENCODING 91
SWIDTH 636 0
DWIDTH 8 0
BBX 5 8 1 0
BITMAP
88
88
88
88
88
88
88
70
ENDCHAR
STARTCHAR leftdblquote
ENCODING 92
SWIDTH 636 0
DWIDTH 8 0
BBX 5 8 1 0
BITMAP
70
88
88
88
88
88
88
88
ENDCHAR
STARTCHAR bracketright
ENCODING 93
SWIDTH 636 0
DWIDTH 8 0
BBX 5 8 1 0
BITMAP
88
88
88
a8
88
88
88
70
ENDCHAR
STARTCHAR circumflex
ENCODING 94
SWIDTH 636 0
DWIDTH 8 0
BBX 5 8 1 0
BITMAP
20
20
50
50
50
50
88
88
ENDCHAR
STARTCHAR dotaccent
ENCODING 95
SWIDTH 636 0
DWIDTH 8 0
BBX 5 8 1 0
BITMAP
88
88
50
50
50
50
20
20
ENDCHAR
STARTCHAR leftquote
ENCODING 96
SWIDTH 636 0
DWIDTH 8 0
BBX 5 9 1 0
BITMAP
80
80
80
80
f8
80
80
80
80
ENDCHAR
STARTCHAR a
ENCODING 97
SWIDTH 636 0
DWIDTH 8 0
BBX 5 9 1 0
BITMAP
08
08
08
08
f8
08
08
08
08
ENDCHAR
STARTCHAR b
ENCODING 98
SWIDTH 477 0
DWIDTH 6 0
BBX 4 11 2 -2
BITMAP
80
80
80
80
80
80
80
80
80
80
f0
ENDCHAR
STARTCHAR c
ENCODING 99
SWIDTH 477 0
DWIDTH 6 0
BBX 4 11 -1 -2
BITMAP
10
10
10
10
10
10
10
10
10
10
f0
ENDCHAR
STARTCHAR d
ENCODING 100
SWIDTH 477 0
DWIDTH 6 0
BBX 4 11 2 -2
BITMAP
f0
80
80
80
80
80
80
80
80
80
80
ENDCHAR
STARTCHAR e
ENCODING 101
SWIDTH 477 0
DWIDTH 6 0
BBX 4 11 -1 -2
BITMAP
f0
10
10
10
10
10
10
10
10
10
10
ENDCHAR
STARTCHAR f
ENCODING 102
SWIDTH 477 0
DWIDTH 6 0
BBX 3 12 1 -3
BITMAP
20
40
40
40
40
c0
c0
40
40
40
40
20
ENDCHAR
STARTCHAR g
ENCODING 103
SWIDTH 477 0
DWIDTH 6 0
BBX 3 12 1 -3
BITMAP
80
40
40
40
40
60
60
40
40
40
40
80
ENDCHAR
STARTCHAR h
ENCODING 104
SWIDTH 397 0
DWIDTH 5 0
BBX 3 11 0 -2
BITMAP
20
20
40
40
80
80
80
40
40
20
20
ENDCHAR
STARTCHAR i
ENCODING 105
SWIDTH 397 0
DWIDTH 5 0
BBX 3 11 1 -2
BITMAP
80
80
40
40
20
20
20
40
40
80
80
ENDCHAR
STARTCHAR j
ENCODING 106
SWIDTH 238 0
DWIDTH 3 0
BBX 1 12 1 -3
BITMAP
80
80
80
80
80
80
80
80
80
80
80
80
ENDCHAR
STARTCHAR k
ENCODING 107
SWIDTH 477 0
DWIDTH 6 0
BBX 5 11 0 -2
BITMAP
88
88
88
88
88
88
88
88
88
88
88
ENDCHAR
STARTCHAR l
ENCODING 108
SWIDTH 477 0
DWIDTH 6 0
BBX 5 12 0 -3
BITMAP
20
70
a8
20
20
20
20
20
20
a8
70
20
ENDCHAR
STARTCHAR m
ENCODING 109
SWIDTH 636 0
DWIDTH 8 0
BBX 8 10 0 -2
BITMAP
18
24
e7
24
24
24
24
e7
24
18
ENDCHAR
STARTCHAR n
ENCODING 110
SWIDTH 477 0
DWIDTH 6 0
BBX 3 12 1 -3
BITMAP
80
80
80
40
40
40
40
40
40
20
20
20
ENDCHAR
STARTCHAR o
ENCODING 111
SWIDTH 238 0
DWIDTH 3 0
BBX 4 9 -1 -1
BITMAP
30
20
40
40
20
20
20
40
c0
ENDCHAR
STARTCHAR p
ENCODING 112
SWIDTH 795 0
DWIDTH 10 0
BBX 9 13 1 -12
BITMAP
0080
0080
0100
0100
0200
0200
0400
4400
a400
2800
2800
1000
1000
ENDCHAR
STARTCHAR q
ENCODING 113
SWIDTH 716 0
DWIDTH 9 0
BBX 6 9 1 0
BITMAP
cc
48
48
48
48
48
48
48
fc
ENDCHAR
STARTCHAR r
ENCODING 114
SWIDTH 795 0
DWIDTH 10 0
BBX 7 9 1 0
BITMAP
fe
82
c6
44
44
28
28
28
10
ENDCHAR
STARTCHAR s
ENCODING 115
SWIDTH 397 0
DWIDTH 5 0
BBX 4 11 1 -2
BITMAP
10
10
20
20
20
20
20
20
20
c0
c0
ENDCHAR
STARTCHAR t
ENCODING 116
SWIDTH 636 0
DWIDTH 8 0
BBX 5 8 1 0
BITMAP
88
88
88
88
88
88
88
f8
ENDCHAR
STARTCHAR u
ENCODING 117
SWIDTH 636 0
DWIDTH 8 0
BBX 5 8 1 0
BITMAP
f8
88
88
88
88
88
88
88
ENDCHAR
STARTCHAR v
ENCODING 118
SWIDTH 795 0
DWIDTH 10 0
BBX 8 11 1 -3
BITMAP
ff
80
80
80
80
80
80
ff
00
00
fe
ENDCHAR
STARTCHAR w
ENCODING 119
SWIDTH 795 0
DWIDTH 10 0
BBX 8 11 0 -3
BITMAP
ff
01
01
01
01
01
01
7f
00
00
7f
ENDCHAR
STARTCHAR x
ENCODING 120
SWIDTH 477 0
DWIDTH 6 0
BBX 3 11 1 -2
BITMAP
40
a0
80
40
a0
a0
a0
40
20
a0
40
ENDCHAR
STARTCHAR y
ENCODING 121
SWIDTH 477 0
DWIDTH 6 0
BBX 3 11 1 -2
BITMAP
40
40
40
40
e0
40
40
40
40
40
40
ENDCHAR
STARTCHAR z
ENCODING 122
SWIDTH 477 0
DWIDTH 6 0
BBX 3 11 1 -2
BITMAP
40
40
e0
40
40
00
40
40
e0
40
40
ENDCHAR
STARTCHAR endash
ENCODING 123
SWIDTH 636 0
DWIDTH 8 0
BBX 6 11 1 -2
BITMAP
7c
e8
e8
e8
e8
68
28
28
28
28
28
ENDCHAR
STARTCHAR emdash
ENCODING 124
SWIDTH 795 0
DWIDTH 10 0
BBX 9 11 0 -2
BITMAP
1c00
3e00
3e00
3e00
5d00
ff80
ff80
ff80
6b00
0800
0800
ENDCHAR
STARTCHAR quotedbl
ENCODING 125
SWIDTH 795 0
DWIDTH 10 0
BBX 7 11 1 -2
BITMAP
10
10
28
44
44
82
44
44
28
10
10
ENDCHAR
STARTCHAR hungarumlaut
ENCODING 126
SWIDTH 795 0
DWIDTH 10 0
BBX 7 9 1 0
BITMAP
6c
92
92
82
44
44
28
10
10
ENDCHAR
STARTCHAR dieresis
ENCODING 127
SWIDTH 795 0
DWIDTH 10 0
BBX 7 11 1 -2
BITMAP
10
10
38
7c
fe
fe
fe
fe
d6
10
10
ENDCHAR
ENDFONT
